<mxfile host="Electron" agent="Mozilla/5.0 (X11; Linux x86_64) AppleWebKit/537.36 (KHTML, like Gecko) draw.io/28.0.4 Chrome/138.0.7204.97 Electron/37.2.1 Safari/537.36" version="28.0.4">
  <diagram name="PÃ¡gina-1" id="tC_fmtkYe-K2ST2OzzYS">
    <mxGraphModel dx="1577" dy="2043" grid="1" gridSize="10" guides="1" tooltips="1" connect="1" arrows="1" fold="1" page="1" pageScale="1" pageWidth="827" pageHeight="1169" math="0" shadow="0">
      <root>
        <mxCell id="0" />
        <mxCell id="1" parent="0" />
        <mxCell id="TW0zNaVr6jMvvWqBmLoF-1" value="" style="html=1;whiteSpace=wrap;" parent="1" vertex="1">
          <mxGeometry x="170" y="20" width="910" height="720" as="geometry" />
        </mxCell>
        <mxCell id="TW0zNaVr6jMvvWqBmLoF-2" value="Usuario" style="shape=umlActor;verticalLabelPosition=bottom;verticalAlign=top;html=1;" parent="1" vertex="1">
          <mxGeometry x="120" y="270" width="30" height="60" as="geometry" />
        </mxCell>
        <mxCell id="TW0zNaVr6jMvvWqBmLoF-3" value="Gestionar usuarios" style="ellipse;whiteSpace=wrap;html=1;" parent="1" vertex="1">
          <mxGeometry x="230" y="40" width="140" height="70" as="geometry" />
        </mxCell>
        <mxCell id="TW0zNaVr6jMvvWqBmLoF-4" value="Ver disponibilidad de canchas" style="ellipse;whiteSpace=wrap;html=1;" parent="1" vertex="1">
          <mxGeometry x="340" y="90" width="140" height="70" as="geometry" />
        </mxCell>
        <mxCell id="TW0zNaVr6jMvvWqBmLoF-5" value="Reservar cancha" style="ellipse;whiteSpace=wrap;html=1;" parent="1" vertex="1">
          <mxGeometry x="430" y="150" width="140" height="70" as="geometry" />
        </mxCell>
        <mxCell id="TW0zNaVr6jMvvWqBmLoF-12" style="edgeStyle=entityRelationEdgeStyle;rounded=0;orthogonalLoop=1;jettySize=auto;html=1;exitX=0;exitY=0.5;exitDx=0;exitDy=0;endArrow=none;endFill=0;entryX=0.5;entryY=0.5;entryDx=0;entryDy=0;entryPerimeter=0;" parent="1" source="TW0zNaVr6jMvvWqBmLoF-6" target="TW0zNaVr6jMvvWqBmLoF-2" edge="1">
          <mxGeometry relative="1" as="geometry" />
        </mxCell>
        <mxCell id="TW0zNaVr6jMvvWqBmLoF-6" value="Cancelar reserva" style="ellipse;whiteSpace=wrap;html=1;" parent="1" vertex="1">
          <mxGeometry x="480" y="220" width="140" height="70" as="geometry" />
        </mxCell>
        <mxCell id="TW0zNaVr6jMvvWqBmLoF-7" value="Ver mis reservas" style="ellipse;whiteSpace=wrap;html=1;" parent="1" vertex="1">
          <mxGeometry x="480" y="300" width="140" height="70" as="geometry" />
        </mxCell>
        <mxCell id="TW0zNaVr6jMvvWqBmLoF-8" value="Modificar reserva" style="ellipse;whiteSpace=wrap;html=1;" parent="1" vertex="1">
          <mxGeometry x="430" y="370" width="140" height="70" as="geometry" />
        </mxCell>
        <mxCell id="TW0zNaVr6jMvvWqBmLoF-9" value="Pagar reserva online" style="ellipse;whiteSpace=wrap;html=1;" parent="1" vertex="1">
          <mxGeometry x="350" y="430" width="140" height="70" as="geometry" />
        </mxCell>
        <mxCell id="TW0zNaVr6jMvvWqBmLoF-10" value="Acumular puntos" style="ellipse;whiteSpace=wrap;html=1;" parent="1" vertex="1">
          <mxGeometry x="260" y="490" width="140" height="70" as="geometry" />
        </mxCell>
        <mxCell id="TW0zNaVr6jMvvWqBmLoF-11" value="Canjear puntos" style="ellipse;whiteSpace=wrap;html=1;" parent="1" vertex="1">
          <mxGeometry x="210" y="560" width="140" height="70" as="geometry" />
        </mxCell>
        <mxCell id="TW0zNaVr6jMvvWqBmLoF-15" style="edgeStyle=entityRelationEdgeStyle;rounded=0;orthogonalLoop=1;jettySize=auto;html=1;exitX=0;exitY=0.5;exitDx=0;exitDy=0;endArrow=none;endFill=0;entryX=0.5;entryY=0.5;entryDx=0;entryDy=0;entryPerimeter=0;" parent="1" source="TW0zNaVr6jMvvWqBmLoF-7" target="TW0zNaVr6jMvvWqBmLoF-2" edge="1">
          <mxGeometry relative="1" as="geometry">
            <mxPoint x="610" y="280" as="sourcePoint" />
            <mxPoint x="280" y="325" as="targetPoint" />
          </mxGeometry>
        </mxCell>
        <mxCell id="TW0zNaVr6jMvvWqBmLoF-16" style="edgeStyle=entityRelationEdgeStyle;rounded=0;orthogonalLoop=1;jettySize=auto;html=1;exitX=0;exitY=0.5;exitDx=0;exitDy=0;endArrow=none;endFill=0;entryX=0.5;entryY=0.5;entryDx=0;entryDy=0;entryPerimeter=0;" parent="1" source="TW0zNaVr6jMvvWqBmLoF-8" target="TW0zNaVr6jMvvWqBmLoF-2" edge="1">
          <mxGeometry relative="1" as="geometry">
            <mxPoint x="718" y="358" as="sourcePoint" />
            <mxPoint x="380" y="340" as="targetPoint" />
          </mxGeometry>
        </mxCell>
        <mxCell id="TW0zNaVr6jMvvWqBmLoF-17" style="edgeStyle=entityRelationEdgeStyle;rounded=0;orthogonalLoop=1;jettySize=auto;html=1;exitX=0;exitY=0.5;exitDx=0;exitDy=0;endArrow=none;endFill=0;entryX=0.5;entryY=0.5;entryDx=0;entryDy=0;entryPerimeter=0;" parent="1" source="TW0zNaVr6jMvvWqBmLoF-5" target="TW0zNaVr6jMvvWqBmLoF-2" edge="1">
          <mxGeometry relative="1" as="geometry">
            <mxPoint x="628" y="288" as="sourcePoint" />
            <mxPoint x="290" y="270" as="targetPoint" />
          </mxGeometry>
        </mxCell>
        <mxCell id="TW0zNaVr6jMvvWqBmLoF-18" style="edgeStyle=entityRelationEdgeStyle;rounded=0;orthogonalLoop=1;jettySize=auto;html=1;exitX=0;exitY=1;exitDx=0;exitDy=0;endArrow=none;endFill=0;entryX=0.5;entryY=0.5;entryDx=0;entryDy=0;entryPerimeter=0;" parent="1" source="TW0zNaVr6jMvvWqBmLoF-4" target="TW0zNaVr6jMvvWqBmLoF-2" edge="1">
          <mxGeometry relative="1" as="geometry">
            <mxPoint x="668" y="248" as="sourcePoint" />
            <mxPoint x="330" y="230" as="targetPoint" />
          </mxGeometry>
        </mxCell>
        <mxCell id="TW0zNaVr6jMvvWqBmLoF-19" style="edgeStyle=entityRelationEdgeStyle;rounded=0;orthogonalLoop=1;jettySize=auto;html=1;exitX=0.5;exitY=1;exitDx=0;exitDy=0;endArrow=none;endFill=0;entryX=0.5;entryY=0.5;entryDx=0;entryDy=0;entryPerimeter=0;" parent="1" source="TW0zNaVr6jMvvWqBmLoF-3" target="TW0zNaVr6jMvvWqBmLoF-2" edge="1">
          <mxGeometry relative="1" as="geometry">
            <mxPoint x="568" y="248" as="sourcePoint" />
            <mxPoint x="230" y="230" as="targetPoint" />
          </mxGeometry>
        </mxCell>
        <mxCell id="TW0zNaVr6jMvvWqBmLoF-20" style="edgeStyle=entityRelationEdgeStyle;rounded=0;orthogonalLoop=1;jettySize=auto;html=1;exitX=0;exitY=0;exitDx=0;exitDy=0;endArrow=none;endFill=0;entryX=0.5;entryY=0.5;entryDx=0;entryDy=0;entryPerimeter=0;" parent="1" source="TW0zNaVr6jMvvWqBmLoF-9" target="TW0zNaVr6jMvvWqBmLoF-2" edge="1">
          <mxGeometry relative="1" as="geometry">
            <mxPoint x="598" y="158" as="sourcePoint" />
            <mxPoint x="260" y="140" as="targetPoint" />
          </mxGeometry>
        </mxCell>
        <mxCell id="TW0zNaVr6jMvvWqBmLoF-21" style="edgeStyle=entityRelationEdgeStyle;rounded=0;orthogonalLoop=1;jettySize=auto;html=1;exitX=0.5;exitY=0;exitDx=0;exitDy=0;endArrow=none;endFill=0;entryX=0.5;entryY=0.5;entryDx=0;entryDy=0;entryPerimeter=0;" parent="1" source="TW0zNaVr6jMvvWqBmLoF-10" target="TW0zNaVr6jMvvWqBmLoF-2" edge="1">
          <mxGeometry relative="1" as="geometry">
            <mxPoint x="468" y="318" as="sourcePoint" />
            <mxPoint x="130" y="410" as="targetPoint" />
          </mxGeometry>
        </mxCell>
        <mxCell id="TW0zNaVr6jMvvWqBmLoF-22" style="edgeStyle=entityRelationEdgeStyle;rounded=0;orthogonalLoop=1;jettySize=auto;html=1;exitX=0;exitY=0;exitDx=0;exitDy=0;endArrow=none;endFill=0;entryX=0.5;entryY=0.5;entryDx=0;entryDy=0;entryPerimeter=0;" parent="1" source="TW0zNaVr6jMvvWqBmLoF-11" target="TW0zNaVr6jMvvWqBmLoF-2" edge="1">
          <mxGeometry relative="1" as="geometry">
            <mxPoint x="598" y="478" as="sourcePoint" />
            <mxPoint x="260" y="460" as="targetPoint" />
          </mxGeometry>
        </mxCell>
        <mxCell id="TW0zNaVr6jMvvWqBmLoF-23" value="Gestionar usuarios" style="ellipse;whiteSpace=wrap;html=1;" parent="1" vertex="1">
          <mxGeometry x="930" y="30" width="140" height="70" as="geometry" />
        </mxCell>
        <mxCell id="TW0zNaVr6jMvvWqBmLoF-24" value="Ver disponibilidad de canchas" style="ellipse;whiteSpace=wrap;html=1;" parent="1" vertex="1">
          <mxGeometry x="840" y="90" width="140" height="70" as="geometry" />
        </mxCell>
        <mxCell id="TW0zNaVr6jMvvWqBmLoF-25" value="Reservar cancha" style="ellipse;whiteSpace=wrap;html=1;" parent="1" vertex="1">
          <mxGeometry x="780" y="160" width="140" height="70" as="geometry" />
        </mxCell>
        <mxCell id="TW0zNaVr6jMvvWqBmLoF-26" value="Cancelar reserva" style="ellipse;whiteSpace=wrap;html=1;" parent="1" vertex="1">
          <mxGeometry x="780" y="240" width="140" height="70" as="geometry" />
        </mxCell>
        <mxCell id="TW0zNaVr6jMvvWqBmLoF-27" value="Ver mis reservas" style="ellipse;whiteSpace=wrap;html=1;" parent="1" vertex="1">
          <mxGeometry x="770" y="320" width="140" height="70" as="geometry" />
        </mxCell>
        <mxCell id="TW0zNaVr6jMvvWqBmLoF-28" value="Modificar reserva" style="ellipse;whiteSpace=wrap;html=1;" parent="1" vertex="1">
          <mxGeometry x="840" y="390" width="140" height="70" as="geometry" />
        </mxCell>
        <mxCell id="TW0zNaVr6jMvvWqBmLoF-29" value="Pagar reserva online" style="ellipse;whiteSpace=wrap;html=1;" parent="1" vertex="1">
          <mxGeometry x="930" y="450" width="140" height="70" as="geometry" />
        </mxCell>
        <mxCell id="TW0zNaVr6jMvvWqBmLoF-30" value="Administrador" style="shape=umlActor;verticalLabelPosition=bottom;verticalAlign=top;html=1;" parent="1" vertex="1">
          <mxGeometry x="1160" y="245" width="30" height="60" as="geometry" />
        </mxCell>
        <mxCell id="TW0zNaVr6jMvvWqBmLoF-31" style="edgeStyle=entityRelationEdgeStyle;rounded=0;orthogonalLoop=1;jettySize=auto;html=1;exitX=0.5;exitY=0.5;exitDx=0;exitDy=0;endArrow=none;endFill=0;entryX=1;entryY=0.5;entryDx=0;entryDy=0;exitPerimeter=0;" parent="1" source="TW0zNaVr6jMvvWqBmLoF-30" target="TW0zNaVr6jMvvWqBmLoF-26" edge="1">
          <mxGeometry relative="1" as="geometry">
            <mxPoint x="725" y="260" as="sourcePoint" />
            <mxPoint x="380" y="305" as="targetPoint" />
          </mxGeometry>
        </mxCell>
        <mxCell id="TW0zNaVr6jMvvWqBmLoF-32" style="edgeStyle=entityRelationEdgeStyle;rounded=0;orthogonalLoop=1;jettySize=auto;html=1;exitX=0.5;exitY=0.5;exitDx=0;exitDy=0;endArrow=none;endFill=0;entryX=1;entryY=1;entryDx=0;entryDy=0;exitPerimeter=0;" parent="1" source="TW0zNaVr6jMvvWqBmLoF-30" target="TW0zNaVr6jMvvWqBmLoF-25" edge="1">
          <mxGeometry relative="1" as="geometry">
            <mxPoint x="1285" y="270" as="sourcePoint" />
            <mxPoint x="1030" y="270" as="targetPoint" />
          </mxGeometry>
        </mxCell>
        <mxCell id="TW0zNaVr6jMvvWqBmLoF-33" style="edgeStyle=entityRelationEdgeStyle;rounded=0;orthogonalLoop=1;jettySize=auto;html=1;exitX=0.5;exitY=0.5;exitDx=0;exitDy=0;endArrow=none;endFill=0;entryX=1;entryY=1;entryDx=0;entryDy=0;exitPerimeter=0;" parent="1" source="TW0zNaVr6jMvvWqBmLoF-30" target="TW0zNaVr6jMvvWqBmLoF-24" edge="1">
          <mxGeometry relative="1" as="geometry">
            <mxPoint x="1285" y="255" as="sourcePoint" />
            <mxPoint x="1010" y="200" as="targetPoint" />
          </mxGeometry>
        </mxCell>
        <mxCell id="TW0zNaVr6jMvvWqBmLoF-34" style="edgeStyle=entityRelationEdgeStyle;rounded=0;orthogonalLoop=1;jettySize=auto;html=1;exitX=0.5;exitY=0.5;exitDx=0;exitDy=0;endArrow=none;endFill=0;entryX=1;entryY=1;entryDx=0;entryDy=0;exitPerimeter=0;" parent="1" source="TW0zNaVr6jMvvWqBmLoF-30" target="TW0zNaVr6jMvvWqBmLoF-23" edge="1">
          <mxGeometry relative="1" as="geometry">
            <mxPoint x="1385" y="405" as="sourcePoint" />
            <mxPoint x="1170" y="280" as="targetPoint" />
          </mxGeometry>
        </mxCell>
        <mxCell id="TW0zNaVr6jMvvWqBmLoF-35" style="edgeStyle=entityRelationEdgeStyle;rounded=0;orthogonalLoop=1;jettySize=auto;html=1;exitX=0.5;exitY=0.5;exitDx=0;exitDy=0;endArrow=none;endFill=0;entryX=1;entryY=0.5;entryDx=0;entryDy=0;exitPerimeter=0;" parent="1" source="TW0zNaVr6jMvvWqBmLoF-30" target="TW0zNaVr6jMvvWqBmLoF-27" edge="1">
          <mxGeometry relative="1" as="geometry">
            <mxPoint x="1415" y="555" as="sourcePoint" />
            <mxPoint x="1200" y="430" as="targetPoint" />
          </mxGeometry>
        </mxCell>
        <mxCell id="TW0zNaVr6jMvvWqBmLoF-36" style="edgeStyle=entityRelationEdgeStyle;rounded=0;orthogonalLoop=1;jettySize=auto;html=1;exitX=0.5;exitY=0.5;exitDx=0;exitDy=0;endArrow=none;endFill=0;entryX=1;entryY=0.5;entryDx=0;entryDy=0;exitPerimeter=0;" parent="1" source="TW0zNaVr6jMvvWqBmLoF-30" target="TW0zNaVr6jMvvWqBmLoF-28" edge="1">
          <mxGeometry relative="1" as="geometry">
            <mxPoint x="1405" y="390" as="sourcePoint" />
            <mxPoint x="1140" y="470" as="targetPoint" />
          </mxGeometry>
        </mxCell>
        <mxCell id="TW0zNaVr6jMvvWqBmLoF-37" style="edgeStyle=entityRelationEdgeStyle;rounded=0;orthogonalLoop=1;jettySize=auto;html=1;exitX=0.5;exitY=0.5;exitDx=0;exitDy=0;endArrow=none;endFill=0;entryX=1;entryY=0;entryDx=0;entryDy=0;exitPerimeter=0;" parent="1" source="TW0zNaVr6jMvvWqBmLoF-30" target="TW0zNaVr6jMvvWqBmLoF-29" edge="1">
          <mxGeometry relative="1" as="geometry">
            <mxPoint x="1355" y="400" as="sourcePoint" />
            <mxPoint x="1160" y="550" as="targetPoint" />
          </mxGeometry>
        </mxCell>
        <mxCell id="TW0zNaVr6jMvvWqBmLoF-38" value="Staff" style="shape=umlActor;verticalLabelPosition=bottom;verticalAlign=top;html=1;" parent="1" vertex="1">
          <mxGeometry x="405" y="790" width="30" height="60" as="geometry" />
        </mxCell>
        <mxCell id="TW0zNaVr6jMvvWqBmLoF-39" value="Reembolsar pago" style="ellipse;whiteSpace=wrap;html=1;" parent="1" vertex="1">
          <mxGeometry x="430" y="660" width="140" height="70" as="geometry" />
        </mxCell>
        <mxCell id="TW0zNaVr6jMvvWqBmLoF-40" value="Confirmar asistencia" style="ellipse;whiteSpace=wrap;html=1;" parent="1" vertex="1">
          <mxGeometry x="274" y="660" width="140" height="70" as="geometry" />
        </mxCell>
        <mxCell id="TW0zNaVr6jMvvWqBmLoF-41" style="edgeStyle=entityRelationEdgeStyle;rounded=0;orthogonalLoop=1;jettySize=auto;html=1;exitX=0.5;exitY=1;exitDx=0;exitDy=0;endArrow=none;endFill=0;entryX=0.5;entryY=0.5;entryDx=0;entryDy=0;entryPerimeter=0;" parent="1" source="TW0zNaVr6jMvvWqBmLoF-39" target="TW0zNaVr6jMvvWqBmLoF-38" edge="1">
          <mxGeometry relative="1" as="geometry">
            <mxPoint x="455" y="620" as="sourcePoint" />
            <mxPoint x="260" y="430" as="targetPoint" />
          </mxGeometry>
        </mxCell>
        <mxCell id="TW0zNaVr6jMvvWqBmLoF-42" style="edgeStyle=entityRelationEdgeStyle;rounded=0;orthogonalLoop=1;jettySize=auto;html=1;exitX=0.5;exitY=1;exitDx=0;exitDy=0;endArrow=none;endFill=0;entryX=0.5;entryY=0.5;entryDx=0;entryDy=0;entryPerimeter=0;" parent="1" source="TW0zNaVr6jMvvWqBmLoF-40" target="TW0zNaVr6jMvvWqBmLoF-38" edge="1">
          <mxGeometry relative="1" as="geometry">
            <mxPoint x="590" y="850" as="sourcePoint" />
            <mxPoint x="510" y="940" as="targetPoint" />
          </mxGeometry>
        </mxCell>
        <mxCell id="TW0zNaVr6jMvvWqBmLoF-43" value="Mercado Pago / Stripe" style="shape=umlActor;verticalLabelPosition=bottom;verticalAlign=top;html=1;" parent="1" vertex="1">
          <mxGeometry x="660" y="780" width="30" height="60" as="geometry" />
        </mxCell>
        <mxCell id="TW0zNaVr6jMvvWqBmLoF-44" value="Diagrama de Casos de uso - Aposplay" style="text;html=1;align=center;verticalAlign=middle;whiteSpace=wrap;rounded=0;fontSize=40;" parent="1" vertex="1">
          <mxGeometry x="170" y="-40" width="900" height="30" as="geometry" />
        </mxCell>
        <mxCell id="z2F27h8N4okFdv-lq5Ka-3" style="edgeStyle=entityRelationEdgeStyle;rounded=0;orthogonalLoop=1;jettySize=auto;html=1;exitX=1;exitY=0.5;exitDx=0;exitDy=0;endArrow=none;endFill=0;" edge="1" parent="1" source="TW0zNaVr6jMvvWqBmLoF-39">
          <mxGeometry relative="1" as="geometry">
            <mxPoint x="700" y="730" as="sourcePoint" />
            <mxPoint x="680" y="770" as="targetPoint" />
          </mxGeometry>
        </mxCell>
        <mxCell id="z2F27h8N4okFdv-lq5Ka-4" style="edgeStyle=entityRelationEdgeStyle;rounded=0;orthogonalLoop=1;jettySize=auto;html=1;exitX=1;exitY=0.5;exitDx=0;exitDy=0;endArrow=none;endFill=0;" edge="1" parent="1" source="TW0zNaVr6jMvvWqBmLoF-9">
          <mxGeometry relative="1" as="geometry">
            <mxPoint x="810" y="730" as="sourcePoint" />
            <mxPoint x="680" y="770" as="targetPoint" />
            <Array as="points">
              <mxPoint x="580" y="520" />
              <mxPoint x="660" y="640" />
              <mxPoint x="620" y="600" />
              <mxPoint x="610" y="630" />
            </Array>
          </mxGeometry>
        </mxCell>
        <mxCell id="z2F27h8N4okFdv-lq5Ka-5" value="Sistema" style="shape=umlActor;verticalLabelPosition=bottom;verticalAlign=top;html=1;" vertex="1" parent="1">
          <mxGeometry x="870" y="780" width="30" height="60" as="geometry" />
        </mxCell>
        <mxCell id="z2F27h8N4okFdv-lq5Ka-6" value="Enviar recordatorios de juego" style="ellipse;whiteSpace=wrap;html=1;" vertex="1" parent="1">
          <mxGeometry x="710" y="650" width="140" height="70" as="geometry" />
        </mxCell>
        <mxCell id="z2F27h8N4okFdv-lq5Ka-7" value="Notificar cancelacion" style="ellipse;whiteSpace=wrap;html=1;" vertex="1" parent="1">
          <mxGeometry x="870" y="650" width="140" height="70" as="geometry" />
        </mxCell>
        <mxCell id="z2F27h8N4okFdv-lq5Ka-8" style="edgeStyle=entityRelationEdgeStyle;rounded=0;orthogonalLoop=1;jettySize=auto;html=1;exitX=0.465;exitY=1.019;exitDx=0;exitDy=0;endArrow=none;endFill=0;exitPerimeter=0;entryX=0.5;entryY=0.5;entryDx=0;entryDy=0;entryPerimeter=0;" edge="1" parent="1" source="z2F27h8N4okFdv-lq5Ka-6" target="z2F27h8N4okFdv-lq5Ka-5">
          <mxGeometry relative="1" as="geometry">
            <mxPoint x="580" y="690" as="sourcePoint" />
            <mxPoint x="880" y="770" as="targetPoint" />
            <Array as="points">
              <mxPoint x="860" y="700" />
            </Array>
          </mxGeometry>
        </mxCell>
        <mxCell id="z2F27h8N4okFdv-lq5Ka-9" style="edgeStyle=entityRelationEdgeStyle;rounded=0;orthogonalLoop=1;jettySize=auto;html=1;exitX=0.5;exitY=1;exitDx=0;exitDy=0;endArrow=none;endFill=0;entryX=0.5;entryY=0.5;entryDx=0;entryDy=0;entryPerimeter=0;" edge="1" parent="1" source="z2F27h8N4okFdv-lq5Ka-7" target="z2F27h8N4okFdv-lq5Ka-5">
          <mxGeometry relative="1" as="geometry">
            <mxPoint x="790" y="811" as="sourcePoint" />
            <mxPoint x="895" y="860" as="targetPoint" />
            <Array as="points">
              <mxPoint x="875" y="790" />
            </Array>
          </mxGeometry>
        </mxCell>
      </root>
    </mxGraphModel>
  </diagram>
</mxfile>
